<svg width="32" height="32" viewBox="0 0 32 32" fill="none" xmlns="http://www.w3.org/2000/svg">
<path fill-rule="evenodd" clip-rule="evenodd" d="M32 16C32 11.7565 30.3143 7.68687 27.3137 4.68629C24.3131 1.68571 20.2435 -8.8487e-07 16 -6.99382e-07C11.7565 -5.13895e-07 7.68687 1.68571 4.68629 4.68629C1.68571 7.68687 -8.8487e-07 11.7565 -6.99382e-07 16C-5.13895e-07 20.2435 1.68571 24.3131 4.68629 27.3137C7.68687 30.3143 11.7565 32 16 32C20.2435 32 24.3131 30.3143 27.3137 27.3137C30.3143 24.3131 32 20.2435 32 16ZM10 14C9.46957 14 8.96086 14.2107 8.58579 14.5858C8.21071 14.9609 8 15.4696 8 16C8 16.5304 8.21071 17.0391 8.58579 17.4142C8.96086 17.7893 9.46957 18 10 18L17.172 18L14.586 20.586C14.2217 20.9632 14.0201 21.4684 14.0247 21.9928C14.0292 22.5172 14.2395 23.0188 14.6104 23.3896C14.9812 23.7605 15.4828 23.9708 16.0072 23.9753C16.5316 23.9799 17.0368 23.7783 17.414 23.414L23.414 17.414C23.7889 17.0389 23.9996 16.5303 23.9996 16C23.9996 15.4697 23.7889 14.9611 23.414 14.586L17.414 8.586C17.0368 8.22168 16.5316 8.0201 16.0072 8.02465C15.4828 8.02921 14.9812 8.23955 14.6104 8.61036C14.2395 8.98118 14.0292 9.4828 14.0247 10.0072C14.0201 10.5316 14.2217 11.0368 14.586 11.414L17.172 14L10 14Z" fill="#A92C21"/>
</svg>
