<svg width="24" height="24" viewBox="0 0 24 24" fill="none" xmlns="http://www.w3.org/2000/svg">
<path d="M12.0007 3.06018C11.1531 3.06018 10.3245 3.30492 9.61976 3.76344C8.91499 4.22196 8.36569 4.87368 8.04132 5.63618C7.71694 6.39867 7.63207 7.2377 7.79744 8.04716C7.9628 8.85663 8.37097 9.60016 8.97033 10.1838C9.56968 10.7673 10.3333 11.1648 11.1646 11.3258C11.996 11.4868 12.8577 11.4042 13.6408 11.0883C14.4239 10.7725 15.0932 10.2376 15.5641 9.55141C16.035 8.86518 16.2864 8.05839 16.2864 7.23307C16.2864 6.12635 15.8349 5.06496 15.0311 4.28239C14.2274 3.49982 13.1374 3.06018 12.0007 3.06018Z" fill="#F0EBE8"/>
<path d="M12 0C9.62663 0 7.30655 0.685261 5.33316 1.96913C3.35977 3.25299 1.8217 5.0778 0.913451 7.21279C0.0051994 9.34779 -0.232441 11.6971 0.230582 13.9636C0.693605 16.2301 1.83649 18.312 3.51472 19.946C5.19295 21.5801 7.33115 22.6929 9.65892 23.1437C11.9867 23.5945 14.3995 23.3632 16.5922 22.4788C18.7849 21.5945 20.6591 20.0969 21.9776 18.1755C23.2962 16.254 24 13.995 24 11.6841C23.9964 8.58638 22.7309 5.61653 20.4813 3.4261C18.2316 1.23567 15.1815 0.00353421 12 0ZM18.8503 19.1336C18.8332 18.0389 18.3751 16.9945 17.5748 16.2255C16.7744 15.4566 15.6958 15.0245 14.5714 15.0224H9.42858C8.30416 15.0245 7.22558 15.4566 6.42522 16.2255C5.62487 16.9945 5.1668 18.0389 5.14972 19.1336C3.59535 17.7822 2.4992 16.003 2.00643 14.0315C1.51367 12.0601 1.64752 9.98937 2.39027 8.09363C3.13301 6.1979 4.44962 4.56654 6.16575 3.41557C7.88188 2.2646 9.91658 1.64832 12.0004 1.64832C14.0843 1.64832 16.119 2.2646 17.8351 3.41557C19.5512 4.56654 20.8678 6.1979 21.6106 8.09363C22.3533 9.98937 22.4872 12.0601 21.9944 14.0315C21.5017 16.003 20.4055 17.7822 18.8511 19.1336H18.8503Z" fill="#F0EBE8"/>
</svg>
