<svg width="32" height="32" viewBox="0 0 32 32" fill="none" xmlns="http://www.w3.org/2000/svg">
<path d="M16.0004 6.85718C14.8702 6.85718 13.7654 7.19232 12.8257 7.82021C11.886 8.4481 11.1536 9.34055 10.7211 10.3847C10.2886 11.4288 10.1754 12.5778 10.3959 13.6863C10.6164 14.7947 11.1607 15.8129 11.9598 16.6121C12.759 17.4112 13.7772 17.9555 14.8856 18.1759C15.9941 18.3964 17.143 18.2833 18.1872 17.8508C19.2313 17.4183 20.1238 16.6859 20.7517 15.7461C21.3796 14.8064 21.7147 13.7016 21.7147 12.5715C21.7147 11.0559 21.1127 9.60249 20.041 8.53085C18.9694 7.45922 17.5159 6.85718 16.0004 6.85718Z" fill="#C4C4C4"/>
<path d="M16 0C12.8355 0 9.74207 0.938384 7.11088 2.69649C4.4797 4.45459 2.42894 6.95345 1.21793 9.87706C0.00693253 12.8007 -0.309921 16.0177 0.307443 19.1214C0.924806 22.2251 2.44866 25.0761 4.6863 27.3137C6.92394 29.5513 9.77487 31.0752 12.8786 31.6926C15.9823 32.3099 19.1993 31.9931 22.1229 30.7821C25.0466 29.5711 27.5454 27.5203 29.3035 24.8891C31.0616 22.2579 32 19.1645 32 16C31.9952 11.758 30.3079 7.69117 27.3084 4.69164C24.3088 1.6921 20.242 0.00483968 16 0V0ZM25.1337 26.2011C25.1109 24.7021 24.5002 23.272 23.433 22.219C22.3659 21.1659 20.9278 20.5742 19.4286 20.5714H12.5714C11.0722 20.5742 9.63411 21.1659 8.56696 22.219C7.49982 23.272 6.88907 24.7021 6.86629 26.2011C4.79379 24.3506 3.33227 21.9141 2.67525 19.2145C2.01822 16.5148 2.19669 13.6792 3.18702 11.0833C4.17735 8.48728 5.93283 6.25333 8.221 4.67722C10.5092 3.1011 13.2221 2.25717 16.0006 2.25717C18.779 2.25717 21.492 3.1011 23.7801 4.67722C26.0683 6.25333 27.8238 8.48728 28.8141 11.0833C29.8045 13.6792 29.9829 16.5148 29.3259 19.2145C28.6689 21.9141 27.2074 24.3506 25.1349 26.2011H25.1337Z" fill="#C4C4C4"/>
</svg>
