<svg width="50" height="50" viewBox="0 0 50 50" fill="none" xmlns="http://www.w3.org/2000/svg">
<path d="M21.875 45.3125C21.875 47.0312 23.2812 48.4375 25 48.4375C26.7188 48.4375 28.125 47.0312 28.125 45.3125H21.875Z" fill="black"/>
<path d="M19.4531 37.5H30.4688C31.0938 34.1406 33.2031 30.8594 35.3906 27.4219C37.9688 23.4375 40.625 19.2969 40.625 15.3125C40.625 7.73438 33.5938 1.5625 25 1.5625C16.4062 1.5625 9.375 7.73438 9.375 15.3125C9.375 19.2969 12.0313 23.4375 14.5313 27.4219C16.7188 30.8594 18.8281 34.1406 19.4531 37.5Z" fill="#E0B962"/>
<path d="M20.625 26.25C20.7031 26.7187 20.8593 27.1875 20.9375 27.6563C21.1718 28.5156 21.3281 29.2969 21.5625 30.1562C22.2656 33.125 22.8906 35.625 23.4375 37.5781H23.9062C23.5156 35.625 22.9687 33.0469 22.2656 30.0781C22.1093 29.2969 21.875 28.4375 21.7187 27.5781C21.6406 27.1875 21.5625 26.7188 21.4062 26.3281C22.0312 26.1719 23.5156 25.7031 25 24.0625C26.4843 25.7031 27.9687 26.1719 28.5937 26.3281C28.5156 26.7969 28.4375 27.1875 28.2812 27.5781C28.125 28.4375 27.8906 29.2969 27.7343 30.0781C27.0312 33.0469 26.4843 35.625 26.0937 37.5781H26.5625C27.0312 35.625 27.7343 33.125 28.4375 30.1562C28.5937 29.375 28.8281 28.5156 29.0625 27.6563C29.1406 27.1875 29.2968 26.7187 29.375 26.25C30 26.1719 30.5468 26.0156 30.9375 25.625C31.4062 25.1562 31.6406 24.6094 31.4843 23.9844C31.4062 23.6719 31.25 23.2813 30.7812 23.2031C30.5468 23.125 30.3906 23.125 30.1562 23.2031C29.9218 23.2813 29.7656 23.4375 29.6875 23.5156C29.2968 23.9844 29.1406 24.4531 28.9843 24.9219L28.75 25.625C28.75 25.625 28.125 25.7031 26.6406 24.6875C25.8593 24.1406 25.625 23.75 25.3906 23.5156C25.625 23.2031 25.8593 22.9687 26.0937 22.5781C26.1718 22.3437 26.25 22.1875 26.3281 21.875C26.3281 21.6406 26.3281 21.3281 26.1718 21.0937C26.0156 20.8594 25.8593 20.625 25.4687 20.4688C25.3125 20.3906 25.1562 20.3906 25 20.3906C24.8437 20.3906 24.6875 20.3906 24.5312 20.4688C24.2187 20.625 23.9843 20.8594 23.8281 21.0937C23.6718 21.3281 23.6718 21.6406 23.6718 21.875C23.6718 22.1094 23.75 22.3437 23.9062 22.5781C24.0625 22.9687 24.2968 23.2812 24.6093 23.5156C24.375 23.75 24.1406 24.1406 23.3593 24.6875C21.9531 25.625 21.25 25.625 21.25 25.625L21.0156 24.9219C20.8593 24.4531 20.7031 23.9844 20.3125 23.5156C20.2343 23.4375 20.0781 23.2813 19.8437 23.2031C19.6093 23.125 19.375 23.125 19.2187 23.2031C18.75 23.3594 18.5937 23.75 18.5156 23.9844C18.4375 24.6094 18.6718 25.1562 19.0625 25.625C19.5312 26.0156 20.0781 26.1719 20.625 26.25ZM29.6875 25.0781C29.8437 24.6875 30 24.2188 30.3125 23.9844C30.3906 23.9063 30.4687 23.9062 30.4687 23.9062H30.625C30.7031 23.9062 30.7812 23.9844 30.8593 24.2187C30.9375 24.5312 30.7812 25 30.4687 25.2344C30.2343 25.3906 29.9218 25.5469 29.6093 25.625C29.6093 25.3906 29.6093 25.2344 29.6875 25.0781ZM24.5312 21.3281C24.6875 21.1719 24.8437 21.0156 25 21.0156C25.1562 21.0156 25.3125 21.0937 25.4687 21.3281C25.625 21.5625 25.5468 21.875 25.3906 22.1875C25.3125 22.4219 25.1562 22.6563 25 22.8125C24.8437 22.5781 24.6875 22.4219 24.6093 22.1875C24.4531 21.9531 24.375 21.6406 24.5312 21.3281ZM19.2187 24.0625C19.2187 23.9062 19.2968 23.8281 19.4531 23.75H19.6093C19.6093 23.75 19.6875 23.8281 19.7656 23.8281C20 24.0625 20.2343 24.5312 20.3906 24.9219C20.4687 25.0781 20.4687 25.2344 20.5468 25.3906C20.2343 25.3125 19.9218 25.2344 19.6875 25C19.375 24.8437 19.2187 24.4531 19.2187 24.0625Z" fill="black"/>
<path d="M19.4531 39.0625H30.625V40.4687H19.4531V39.0625Z" fill="black"/>
<path d="M20.2344 41.875H29.8438V43.2813H20.2344V41.875Z" fill="black"/>
<path d="M20.2344 40.4688H29.8438V41.875H20.2344V40.4688Z" fill="black"/>
<path d="M21.0156 44.7656H29.0625V46.1719H21.0156V44.7656Z" fill="black"/>
<path d="M21.0156 43.3594H29.0625V44.7656H21.0156V43.3594Z" fill="black"/>
</svg>
