<svg width="24" height="24" viewBox="0 0 24 24" fill="none" xmlns="http://www.w3.org/2000/svg">
<path fill-rule="evenodd" clip-rule="evenodd" d="M17.5861 5.92048L7.08606 11.1705L6.41406 9.82948L16.9141 4.57948L17.5861 5.92048ZM16.9141 19.4205L6.41406 14.1705L7.08606 12.8295L17.5861 18.0795L16.9141 19.4205Z" fill="black"/>
<path fill-rule="evenodd" clip-rule="evenodd" d="M20.25 6C20.8467 6 21.419 5.76295 21.841 5.34099C22.2629 4.91903 22.5 4.34674 22.5 3.75C22.5 3.15326 22.2629 2.58097 21.841 2.15901C21.419 1.73705 20.8467 1.5 20.25 1.5C19.6533 1.5 19.081 1.73705 18.659 2.15901C18.2371 2.58097 18 3.15326 18 3.75C18 4.34674 18.2371 4.91903 18.659 5.34099C19.081 5.76295 19.6533 6 20.25 6ZM20.25 7.5C21.2446 7.5 22.1984 7.10491 22.9016 6.40165C23.6049 5.69839 24 4.74456 24 3.75C24 2.75544 23.6049 1.80161 22.9016 1.09835C22.1984 0.395088 21.2446 0 20.25 0C19.2554 0 18.3016 0.395088 17.5984 1.09835C16.8951 1.80161 16.5 2.75544 16.5 3.75C16.5 4.74456 16.8951 5.69839 17.5984 6.40165C18.3016 7.10491 19.2554 7.5 20.25 7.5ZM20.25 22.5C20.8467 22.5 21.419 22.2629 21.841 21.841C22.2629 21.419 22.5 20.8467 22.5 20.25C22.5 19.6533 22.2629 19.081 21.841 18.659C21.419 18.2371 20.8467 18 20.25 18C19.6533 18 19.081 18.2371 18.659 18.659C18.2371 19.081 18 19.6533 18 20.25C18 20.8467 18.2371 21.419 18.659 21.841C19.081 22.2629 19.6533 22.5 20.25 22.5ZM20.25 24C21.2446 24 22.1984 23.6049 22.9016 22.9016C23.6049 22.1984 24 21.2446 24 20.25C24 19.2554 23.6049 18.3016 22.9016 17.5984C22.1984 16.8951 21.2446 16.5 20.25 16.5C19.2554 16.5 18.3016 16.8951 17.5984 17.5984C16.8951 18.3016 16.5 19.2554 16.5 20.25C16.5 21.2446 16.8951 22.1984 17.5984 22.9016C18.3016 23.6049 19.2554 24 20.25 24ZM3.75 14.25C4.34674 14.25 4.91903 14.0129 5.34099 13.591C5.76295 13.169 6 12.5967 6 12C6 11.4033 5.76295 10.831 5.34099 10.409C4.91903 9.98705 4.34674 9.75 3.75 9.75C3.15326 9.75 2.58097 9.98705 2.15901 10.409C1.73705 10.831 1.5 11.4033 1.5 12C1.5 12.5967 1.73705 13.169 2.15901 13.591C2.58097 14.0129 3.15326 14.25 3.75 14.25ZM3.75 15.75C4.74456 15.75 5.69839 15.3549 6.40165 14.6517C7.10491 13.9484 7.5 12.9946 7.5 12C7.5 11.0054 7.10491 10.0516 6.40165 9.34835C5.69839 8.64509 4.74456 8.25 3.75 8.25C2.75544 8.25 1.80161 8.64509 1.09835 9.34835C0.395088 10.0516 0 11.0054 0 12C0 12.9946 0.395088 13.9484 1.09835 14.6517C1.80161 15.3549 2.75544 15.75 3.75 15.75Z" fill="black"/>
</svg>
