<svg width="25" height="24" viewBox="0 0 25 24" fill="none" xmlns="http://www.w3.org/2000/svg">
<path d="M24.9544 5.75078C24.0663 6.14566 23.1256 6.40644 22.1625 6.52478C23.1777 5.9085 23.9377 4.94103 24.3018 3.80153C23.3416 4.36478 22.2965 4.76484 21.2082 4.98578C20.4763 4.19487 19.5068 3.67037 18.4501 3.49365C17.3934 3.31693 16.3086 3.49787 15.364 4.0084C14.4193 4.51893 13.6677 5.33051 13.2257 6.31721C12.7836 7.30392 12.6759 8.41059 12.9193 9.46553C8.87569 9.27428 5.29111 7.30928 2.89373 4.34078C2.45732 5.09144 2.22907 5.94722 2.23302 6.81803C2.23243 7.62755 2.42949 8.42469 2.8067 9.13867C3.18392 9.85265 3.72961 10.4614 4.39533 10.9108C3.62386 10.8872 2.86919 10.6771 2.19446 10.298V10.3573C2.19422 11.4935 2.58244 12.5949 3.29331 13.4748C4.00417 14.3547 4.99397 14.9589 6.09493 15.185C5.67789 15.2977 5.2482 15.3555 4.81653 15.3568C4.50434 15.3568 4.20624 15.326 3.90889 15.2705C4.22221 16.2483 4.82914 17.103 5.6452 17.7156C6.46126 18.3281 7.44585 18.6682 8.46191 18.6883C6.74037 20.0519 4.61615 20.7916 2.42953 20.789C2.04223 20.7906 1.65519 20.7685 1.27051 20.723C3.50111 22.1686 6.0952 22.936 8.74444 22.934C17.6925 22.934 22.5822 15.4378 22.5822 8.94578C22.5822 8.73878 22.5822 8.52803 22.5666 8.31653C23.5231 7.62319 24.3474 6.76024 24.9996 5.76953L24.9544 5.75078Z" fill="#C4C4C4"/>
</svg>
