<svg width="24" height="24" viewBox="0 0 24 24" fill="none" xmlns="http://www.w3.org/2000/svg">
<path d="M12 0.47998C5.63758 0.47998 0.47998 5.63758 0.47998 12C0.47998 18.3624 5.63758 23.52 12 23.52C18.3624 23.52 23.52 18.3624 23.52 12C23.52 5.63758 18.3624 0.47998 12 0.47998ZM15.0924 16.9692C14.6835 17.1709 14.2548 17.3297 13.8132 17.4432C13.4073 17.5355 12.9922 17.581 12.576 17.5788C12.072 17.5788 11.6268 17.5128 11.2392 17.3844C10.8752 17.2691 10.5381 17.0818 10.248 16.8336C9.99965 16.6302 9.80445 16.3695 9.67918 16.074C9.57358 15.804 9.52078 15.4152 9.52078 14.9064V10.992H8.30158V9.41518C8.73238 9.27238 9.10558 9.06838 9.41398 8.80078C9.72238 8.53558 9.97078 8.21758 10.1568 7.84438C10.344 7.47238 10.4724 6.99598 10.5432 6.42238H12.1116V9.24238H14.7276V10.992H12.1116V13.854C12.1116 14.5008 12.1452 14.916 12.2136 15.0984C12.2833 15.2854 12.4173 15.4416 12.5916 15.5388C12.8364 15.6864 13.116 15.7608 13.428 15.7608C13.9872 15.7608 14.5416 15.576 15.0936 15.2076V16.9692H15.0924Z" fill="white"/>
</svg>
