<svg width="24" height="24" viewBox="0 0 24 24" fill="none" xmlns="http://www.w3.org/2000/svg">
<path d="M15.6835 0H8.31649C1.5937 0 0 1.59365 0 8.31623V15.683C0 22.4056 1.5937 23.9992 8.31649 23.9992H15.6835C22.4063 23.9992 24 22.4056 24 15.683V8.31623C24 1.59365 22.3905 0 15.6835 0ZM19.3749 17.1199H17.6327C16.9727 17.1199 16.7695 16.5965 15.5823 15.3935C14.551 14.3938 14.0943 14.2611 13.8401 14.2611C13.4808 14.2611 13.3788 14.3624 13.3788 14.8551V16.4292C13.3788 16.8514 13.2461 17.1049 12.1286 17.1049C10.2807 17.1049 8.23024 15.9875 6.79254 13.9056C4.62436 10.8548 4.03112 8.56971 4.03112 8.09724C4.03112 7.84301 4.13237 7.60527 4.62061 7.60527H6.36655C6.80829 7.60527 6.97628 7.80851 7.14803 8.28098C8.01125 10.7731 9.44896 12.9562 10.0422 12.9562C10.2612 12.9562 10.3624 12.8549 10.3624 12.2962V9.72239C10.2957 8.53522 9.67095 8.43322 9.67095 8.01175C9.67095 7.80851 9.83894 7.60527 10.1082 7.60527H12.8538C13.2251 7.60527 13.3616 7.80851 13.3616 8.24573V11.718C13.3616 12.093 13.5296 12.2257 13.6308 12.2257C13.8498 12.2257 14.0373 12.093 14.443 11.6865C15.697 10.2804 16.5955 8.11224 16.5955 8.11224C16.7125 7.85801 16.9157 7.62027 17.3575 7.62027H19.1034C19.6269 7.62027 19.7439 7.88951 19.6269 8.26448C19.4079 9.27992 17.2712 12.2955 17.2712 12.2955C17.0875 12.6 17.017 12.7327 17.2712 13.0724C17.4587 13.3267 18.0684 13.8539 18.4742 14.3264C19.2204 15.1738 19.7941 15.8848 19.9471 16.3767C20.1189 16.8649 19.8654 17.1192 19.3726 17.1192L19.3749 17.1199Z" fill="#C4C4C4"/>
</svg>
