<svg width="114" height="38" viewBox="0 0 114 38" fill="none" xmlns="http://www.w3.org/2000/svg">
<path d="M7.28 0.399999H0.08V13H2.96V3.172H7.28V0.399999ZM12.0341 3.748C10.8281 3.748 9.94611 4.162 9.35211 4.846V4H6.65211V16.6H9.35211V12.154C9.94611 12.838 10.8281 13.252 12.0341 13.252C14.3921 13.252 16.3361 11.182 16.3361 8.5C16.3361 5.818 14.3921 3.748 12.0341 3.748ZM11.4941 10.696C10.2521 10.696 9.35211 9.85 9.35211 8.5C9.35211 7.15 10.2521 6.304 11.4941 6.304C12.7361 6.304 13.6361 7.15 13.6361 8.5C13.6361 9.85 12.7361 10.696 11.4941 10.696ZM24.401 4V4.846C23.807 4.162 22.925 3.748 21.719 3.748C19.361 3.748 17.417 5.818 17.417 8.5C17.417 11.182 19.361 13.252 21.719 13.252C22.925 13.252 23.807 12.838 24.401 12.154V13H27.101V4H24.401ZM22.259 10.696C21.017 10.696 20.117 9.85 20.117 8.5C20.117 7.15 21.017 6.304 22.259 6.304C23.501 6.304 24.401 7.15 24.401 8.5C24.401 9.85 23.501 10.696 22.259 10.696ZM41.7718 13L38.7838 8.5L41.5918 4H38.6038L36.3358 7.852V4H33.7078V7.852L31.4398 4H28.4518L31.2598 8.5L28.2718 13H31.2598L33.7078 9.094V13H36.3358V9.094L38.7838 13H41.7718ZM51.2134 10.48V4H43.9594V7.366C43.9594 8.914 43.6894 9.778 43.2394 10.48H42.1234V15.412H44.7514V13H49.7554V15.412H52.3834V10.48H51.2134ZM46.0654 10.48C46.4074 9.67 46.5874 8.68 46.5874 7.366V6.412H48.5854V10.48H46.0654ZM59.9088 4V4.846C59.3148 4.162 58.4328 3.748 57.2268 3.748C54.8688 3.748 52.9248 5.818 52.9248 8.5C52.9248 11.182 54.8688 13.252 57.2268 13.252C58.4328 13.252 59.3148 12.838 59.9088 12.154V13H62.6088V4H59.9088ZM57.7668 10.696C56.5248 10.696 55.6248 9.85 55.6248 8.5C55.6248 7.15 56.5248 6.304 57.7668 6.304C59.0088 6.304 59.9088 7.15 59.9088 8.5C59.9088 9.85 59.0088 10.696 57.7668 10.696ZM70.3496 4V7.24H67.2896V4H64.5896V13H67.2896V9.76H70.3496V13H73.0496V4H70.3496ZM79.351 13.252C81.115 13.252 82.645 12.334 83.419 10.93L81.061 9.58C80.773 10.21 80.107 10.588 79.315 10.588C78.145 10.588 77.281 9.742 77.281 8.5C77.281 7.258 78.145 6.412 79.315 6.412C80.107 6.412 80.755 6.79 81.061 7.42L83.419 6.052C82.645 4.666 81.097 3.748 79.351 3.748C76.615 3.748 74.581 5.818 74.581 8.5C74.581 11.182 76.615 13.252 79.351 13.252ZM93.2335 13L89.8675 8.5L93.1435 4H89.9935L87.2935 7.942V4H84.5935V13H87.2935V9.022L90.1735 13H93.2335ZM100.706 4L96.8543 8.5V4H94.2263V13H96.2063L100.058 8.5V13H102.686V4H100.706ZM107.08 9.58H113.47C113.542 9.238 113.578 8.878 113.578 8.5C113.578 5.782 111.634 3.748 109.006 3.748C106.162 3.748 104.218 5.818 104.218 8.5C104.218 11.182 106.126 13.252 109.204 13.252C110.914 13.252 112.246 12.622 113.128 11.398L110.968 10.156C110.608 10.552 109.978 10.84 109.24 10.84C108.25 10.84 107.422 10.516 107.08 9.58ZM107.026 7.564C107.278 6.646 107.962 6.142 108.988 6.142C109.798 6.142 110.608 6.52 110.896 7.564H107.026ZM7.1 35H9.98V22.4H7.82L2.96 29.24V22.4H0.08V35H2.24L7.1 28.16V35ZM17.8086 26V29.24H14.7486V26H12.0486V35H14.7486V31.76H17.8086V35H20.5086V26H17.8086ZM28.97 26L25.118 30.5V26H22.49V35H24.47L28.322 30.5V35H30.95V26H28.97ZM41.0314 32.48V26H38.3314V32.48H35.6314V26H32.9314V35H39.9334V37.412H42.5614V32.48H41.0314ZM50.3977 26L46.5457 30.5V26H43.9177V35H45.8977L49.7497 30.5V35H52.3777V26H50.3977ZM60.8931 26V26.846C60.2991 26.162 59.4171 25.748 58.2111 25.748C55.8531 25.748 53.9091 27.818 53.9091 30.5C53.9091 33.182 55.8531 35.252 58.2111 35.252C59.4171 35.252 60.2991 34.838 60.8931 34.154V35H63.5931V26H60.8931ZM58.7511 32.696C57.5091 32.696 56.6091 31.85 56.6091 30.5C56.6091 29.15 57.5091 28.304 58.7511 28.304C59.9931 28.304 60.8931 29.15 60.8931 30.5C60.8931 31.85 59.9931 32.696 58.7511 32.696ZM72.864 26H64.764V28.592H67.482V35H70.182V28.592H72.864V26ZM80.5091 26L76.6571 30.5V26H74.0291V35H76.0091L79.8611 30.5V35H82.4891V26H80.5091ZM91.1845 30.392C91.7425 29.978 92.0305 29.348 92.0305 28.574C92.0305 27.08 90.9685 26 88.9705 26H84.4705V35H89.3305C91.3285 35 92.3905 33.92 92.3905 32.426C92.3905 31.508 91.9585 30.806 91.1845 30.392ZM88.6825 28.16C89.1685 28.16 89.4745 28.358 89.4745 28.808C89.4745 29.24 89.1685 29.42 88.6825 29.42H86.9905V28.16H88.6825ZM88.9705 32.768H86.9905V31.472H88.9705C89.4385 31.472 89.7625 31.67 89.7625 32.102C89.7625 32.552 89.4385 32.768 88.9705 32.768ZM97.9461 28.7H96.4341V26H93.7341V35H97.9461C100.124 35 101.474 33.74 101.474 31.85C101.474 29.96 100.124 28.7 97.9461 28.7ZM102.374 26V35H105.074V26H102.374ZM97.9641 32.66H96.4341V31.04H97.9641C98.5041 31.04 98.8461 31.382 98.8461 31.85C98.8461 32.318 98.5041 32.66 97.9641 32.66Z" fill="#F0EBE8"/>
</svg>
